<mxfile host="app.diagrams.net" agent="Mozilla/5.0 (Windows NT 10.0; Win64; x64) AppleWebKit/537.36 (KHTML, like Gecko) Chrome/137.0.0.0 Safari/537.36" version="27.1.4">
  <diagram name="Page-1" id="I0H1au_VMu1ibVprOhDT">
    <mxGraphModel dx="1212" dy="770" grid="1" gridSize="10" guides="1" tooltips="1" connect="1" arrows="1" fold="1" page="1" pageScale="1" pageWidth="850" pageHeight="1100" math="0" shadow="0">
      <root>
        <mxCell id="0" />
        <mxCell id="1" parent="0" />
        <mxCell id="pxddxgOohQZsN6izG0DX-2" value="public static void main(String[] args);&lt;div&gt;&lt;div&gt;&lt;div&gt;&lt;br&gt;&lt;/div&gt;&lt;/div&gt;&lt;/div&gt;" style="whiteSpace=wrap;html=1;aspect=fixed;labelPosition=center;verticalLabelPosition=middle;align=left;verticalAlign=middle;" parent="1" vertex="1">
          <mxGeometry x="125" y="120" width="150" height="150" as="geometry" />
        </mxCell>
        <mxCell id="pxddxgOohQZsN6izG0DX-3" value="&lt;div&gt;&lt;br&gt;&lt;/div&gt;&lt;div&gt;&lt;br&gt;&lt;/div&gt;&lt;div&gt;&lt;br&gt;&lt;/div&gt;&lt;div&gt;&lt;br&gt;&lt;/div&gt;&lt;div&gt;&lt;br&gt;&lt;/div&gt;&lt;div&gt;&lt;br&gt;&lt;/div&gt;private char[][] board;&lt;div&gt;private HashMap&amp;lt;Character, Integer&amp;gt; pieceCount;&lt;/div&gt;&lt;div&gt;private HashMap&amp;lt;Character, ArrayList&amp;lt;DirectionEnum&amp;gt;&amp;gt; viableDirections;&lt;/div&gt;&lt;div&gt;&lt;div&gt;public static final char PLAYER_ONE = &#39;x&#39;;&lt;/div&gt;&lt;div&gt;public static final char PLAYER_TWO = &#39;o&#39;;&lt;/div&gt;&lt;div&gt;public static final char EMPTY_POS = &#39; &#39;;&lt;/div&gt;&lt;div&gt;public static final char BLACK_TILE = &#39;*&#39;&lt;/div&gt;&lt;/div&gt;&lt;div&gt;&lt;div&gt;public static final int ROW_NUM = 8;&lt;/div&gt;&lt;div&gt;public static final int COL_NUM = 8;&lt;/div&gt;&lt;div&gt;public static final int STARTING_COUNT = 12;&lt;/div&gt;&lt;/div&gt;&lt;div&gt;public CheckerBoard();&lt;/div&gt;&lt;div&gt;public HashMap&amp;lt;Character, ArrayList&amp;lt;DirectionEnum&amp;gt;&amp;gt; getViableDirections();&lt;/div&gt;&lt;div&gt;public HashMap&amp;lt;Character, Integer&amp;gt; getPieceCounts();&lt;/div&gt;&lt;div&gt;public void placePiece(BoardPosition pos, char player);&lt;/div&gt;&lt;div&gt;public char whatsAtPos(BoardPosition pos);&lt;/div&gt;&lt;div&gt;public boolean checkPlayerWin(Character player);&lt;/div&gt;&lt;div&gt;public void crownPiece(BoardPosition posOfPlayer);&lt;/div&gt;&lt;div&gt;public BoardPosition movePiece(BoardPosition startingPos, DirectionEnum dir);&lt;/div&gt;&lt;div&gt;public BoardPosition jumpPiece(BoardPosition startingPos, DirectionEnum dir);&lt;/div&gt;&lt;div&gt;public HashMap&amp;lt;DirectionEnum, Character&amp;gt; scanSurroundingPositions(BoardPosition startingPos);&lt;/div&gt;&lt;div&gt;public String toString();&lt;/div&gt;&lt;div&gt;&lt;br&gt;&lt;/div&gt;&lt;div&gt;&lt;br&gt;&lt;/div&gt;&lt;div&gt;&lt;br&gt;&lt;/div&gt;&lt;div&gt;&lt;br&gt;&lt;/div&gt;&lt;div&gt;&lt;br&gt;&lt;/div&gt;&lt;div&gt;&lt;br&gt;&lt;/div&gt;" style="whiteSpace=wrap;html=1;aspect=fixed;align=left;" parent="1" vertex="1">
          <mxGeometry x="90" y="310" width="450" height="450" as="geometry" />
        </mxCell>
        <mxCell id="pxddxgOohQZsN6izG0DX-4" value="private int row;&lt;div&gt;private int column;&lt;/div&gt;&lt;div&gt;public BoardPosition(int aRow, int aCol);&lt;/div&gt;&lt;div&gt;public int getRow();&lt;/div&gt;&lt;div&gt;public int getColumn();&lt;/div&gt;&lt;div&gt;public boolean equals(Object obj);&lt;/div&gt;&lt;div&gt;public String toString();&lt;/div&gt;&lt;div&gt;&lt;br&gt;&lt;/div&gt;" style="whiteSpace=wrap;html=1;aspect=fixed;align=left;" parent="1" vertex="1">
          <mxGeometry x="190" y="860" width="220" height="220" as="geometry" />
        </mxCell>
        <mxCell id="pxddxgOohQZsN6izG0DX-5" value="NW&lt;div&gt;NE&lt;br&gt;SW&lt;br&gt;SE&lt;/div&gt;" style="whiteSpace=wrap;html=1;aspect=fixed;align=left;" parent="1" vertex="1">
          <mxGeometry x="440" y="130" width="130" height="130" as="geometry" />
        </mxCell>
        <mxCell id="pxddxgOohQZsN6izG0DX-11" value="" style="endArrow=none;html=1;rounded=0;" parent="1" source="pxddxgOohQZsN6izG0DX-2" target="pxddxgOohQZsN6izG0DX-5" edge="1">
          <mxGeometry width="50" height="50" relative="1" as="geometry">
            <mxPoint x="310" y="200" as="sourcePoint" />
            <mxPoint x="390" y="200" as="targetPoint" />
            <Array as="points" />
          </mxGeometry>
        </mxCell>
        <mxCell id="pxddxgOohQZsN6izG0DX-14" value="CheckersFE" style="text;strokeColor=none;align=center;fillColor=none;html=1;verticalAlign=middle;whiteSpace=wrap;rounded=0;" parent="1" vertex="1">
          <mxGeometry x="170" y="120" width="60" height="30" as="geometry" />
        </mxCell>
        <mxCell id="pxddxgOohQZsN6izG0DX-16" value="CheckerBoard" style="text;strokeColor=none;align=center;fillColor=none;html=1;verticalAlign=middle;whiteSpace=wrap;rounded=0;" parent="1" vertex="1">
          <mxGeometry x="230" y="330" width="60" height="30" as="geometry" />
        </mxCell>
        <mxCell id="pxddxgOohQZsN6izG0DX-18" value="BoardPosition" style="text;strokeColor=none;align=center;fillColor=none;html=1;verticalAlign=middle;whiteSpace=wrap;rounded=0;" parent="1" vertex="1">
          <mxGeometry x="270" y="870" width="60" height="30" as="geometry" />
        </mxCell>
        <mxCell id="pxddxgOohQZsN6izG0DX-19" value="DirectionEnum" style="text;strokeColor=none;align=center;fillColor=none;html=1;verticalAlign=middle;whiteSpace=wrap;rounded=0;" parent="1" vertex="1">
          <mxGeometry x="475" y="140" width="60" height="30" as="geometry" />
        </mxCell>
        <mxCell id="NSh6I4D9OFORHRkTfOkh-2" value="" style="endArrow=none;html=1;rounded=0;exitX=0.5;exitY=0;exitDx=0;exitDy=0;entryX=0.464;entryY=1.004;entryDx=0;entryDy=0;entryPerimeter=0;" edge="1" parent="1" source="pxddxgOohQZsN6izG0DX-4" target="pxddxgOohQZsN6izG0DX-3">
          <mxGeometry width="50" height="50" relative="1" as="geometry">
            <mxPoint x="150" y="530" as="sourcePoint" />
            <mxPoint x="200" y="480" as="targetPoint" />
          </mxGeometry>
        </mxCell>
        <mxCell id="NSh6I4D9OFORHRkTfOkh-3" value="" style="endArrow=none;html=1;rounded=0;exitX=0.5;exitY=0;exitDx=0;exitDy=0;" edge="1" parent="1" source="pxddxgOohQZsN6izG0DX-3">
          <mxGeometry width="50" height="50" relative="1" as="geometry">
            <mxPoint x="150" y="320" as="sourcePoint" />
            <mxPoint x="200" y="270" as="targetPoint" />
          </mxGeometry>
        </mxCell>
      </root>
    </mxGraphModel>
  </diagram>
</mxfile>
